HIERARCHY
ROOT hip
{
  OFFSET 0 0 0
  CHANNELS 6 Xposition Yposition Zposition Zrotation Yrotation Xrotation
  JOINT abdomen
  {
    OFFSET 0 20.6881 -0.73152
    CHANNELS 3 Zrotation Xrotation Yrotation
    JOINT chest
    {
      OFFSET 0 11.7043 -0.48768
      CHANNELS 3 Zrotation Xrotation Yrotation
      JOINT neck
      {
        OFFSET 0 22.1894 -2.19456
        CHANNELS 3 Zrotation Xrotation Yrotation
        JOINT head
        {
          OFFSET -0.24384 7.07133 1.2192
          CHANNELS 3 Zrotation Xrotation Yrotation
          JOINT leftEye
          {
            OFFSET 4.14528 8.04674 8.04672
            CHANNELS 3 Zrotation Xrotation Yrotation
            End Site
            {
              OFFSET 1 0 0
            }
          }
          JOINT rightEye
          {
            OFFSET -3.6576 8.04674 8.04672
            CHANNELS 3 Zrotation Xrotation Yrotation
            End Site
            {
              OFFSET 1 0 0
            }
          }
        }
      }
      JOINT rCollar
      {
        OFFSET -2.68224 19.2634 -4.8768
        CHANNELS 3 Zrotation Xrotation Yrotation
        JOINT rShldr
        {
          OFFSET -8.77824 -1.95073 1.46304
          CHANNELS 3 Zrotation Xrotation Yrotation
          JOINT rForeArm
          {
            OFFSET -28.1742 -1.7115 0.48768
            CHANNELS 3 Zrotation Xrotation Yrotation
            JOINT rHand
            {
              OFFSET -22.5879 0.773209 7.07136
              CHANNELS 3 Zrotation Xrotation Yrotation
              JOINT rThumb1
              {
                OFFSET -1.2192 -0.487915 3.41376
                CHANNELS 3 Zrotation Xrotation Yrotation
                JOINT rThumb2
                {
                  OFFSET -3.37035 -0.52449 3.41376
                  CHANNELS 3 Zrotation Xrotation Yrotation
                  End Site
                  {
                    OFFSET -1.78271 -1.18214 1.43049
                  }
                }
              }
              JOINT rIndex1
              {
                OFFSET -7.75947 0.938293 5.60832
                CHANNELS 3 Zrotation Xrotation Yrotation
                JOINT rIndex2
                {
                  OFFSET -2.54057 -0.884171 1.56538
                  CHANNELS 3 Zrotation Xrotation Yrotation
                  End Site
                  {
                    OFFSET -1.62519 -0.234802 1.16502
                  }
                }
              }
              JOINT rMid1
              {
                OFFSET -8.24714 1.18213 3.41376
                CHANNELS 3 Zrotation Xrotation Yrotation
                JOINT rMid2
                {
                  OFFSET -3.10165 -0.590103 1.0647
                  CHANNELS 3 Zrotation Xrotation Yrotation
                  End Site
                  {
                    OFFSET -2.48547 -0.328903 0.83742
                  }
                }
              }
              JOINT rRing1
              {
                OFFSET -8.82822 0.546677 1.51678
                CHANNELS 3 Zrotation Xrotation Yrotation
                JOINT rRing2
                {
                  OFFSET -2.60934 -0.819778 -0.0198488
                  CHANNELS 3 Zrotation Xrotation Yrotation
                  End Site
                  {
                    OFFSET -2.33842 -0.294052 0.168128
                  }
                }
              }
              JOINT rPinky1
              {
                OFFSET -8.27202 -0.0477905 -0.4584
                CHANNELS 3 Zrotation Xrotation Yrotation
                JOINT rPinky2
                {
                  OFFSET -1.82734 -0.647385 -0.700984
                  CHANNELS 3 Zrotation Xrotation Yrotation
                  End Site
                  {
                    OFFSET -1.69225 -0.51767 -0.607171
                  }
                }
              }
            }
          }
        }
      }
      JOINT lCollar
      {
        OFFSET 2.68224 19.2634 -4.8768
        CHANNELS 3 Zrotation Xrotation Yrotation
        JOINT lShldr
        {
          OFFSET 8.77824 -1.95073 1.46304
          CHANNELS 3 Zrotation Xrotation Yrotation
          JOINT lForeArm
          {
            OFFSET 28.1742 -1.7115 0.48768
            CHANNELS 3 Zrotation Xrotation Yrotation
            JOINT lHand
            {
              OFFSET 22.5879 0.773209 7.07136
              CHANNELS 3 Zrotation Xrotation Yrotation
              JOINT lThumb1
              {
                OFFSET 1.2192 -0.487915 3.41376
                CHANNELS 3 Zrotation Xrotation Yrotation
                JOINT lThumb2
                {
                  OFFSET 3.37035 -0.52449 3.41376
                  CHANNELS 3 Zrotation Xrotation Yrotation
                  End Site
                  {
                    OFFSET 1.78271 -1.18214 1.43049
                  }
                }
              }
              JOINT lIndex1
              {
                OFFSET 7.75947 0.938293 5.60832
                CHANNELS 3 Zrotation Xrotation Yrotation
                JOINT lIndex2
                {
                  OFFSET 2.54057 -0.884171 1.56538
                  CHANNELS 3 Zrotation Xrotation Yrotation
                  End Site
                  {
                    OFFSET 1.62519 -0.234802 1.16502
                  }
                }
              }
              JOINT lMid1
              {
                OFFSET 8.24714 1.18213 3.41376
                CHANNELS 3 Zrotation Xrotation Yrotation
                JOINT lMid2
                {
                  OFFSET 3.10165 -0.590103 1.0647
                  CHANNELS 3 Zrotation Xrotation Yrotation
                  End Site
                  {
                    OFFSET 2.48547 -0.328903 0.83742
                  }
                }
              }
              JOINT lRing1
              {
                OFFSET 8.82822 0.546677 1.51678
                CHANNELS 3 Zrotation Xrotation Yrotation
                JOINT lRing2
                {
                  OFFSET 2.60934 -0.819778 -0.0198488
                  CHANNELS 3 Zrotation Xrotation Yrotation
                  End Site
                  {
                    OFFSET 2.33842 -0.294052 0.168128
                  }
                }
              }
              JOINT lPinky1
              {
                OFFSET 8.27202 -0.0477905 -0.4584
                CHANNELS 3 Zrotation Xrotation Yrotation
                JOINT lPinky2
                {
                  OFFSET 1.82734 -0.647385 -0.700984
                  CHANNELS 3 Zrotation Xrotation Yrotation
                  End Site
                  {
                    OFFSET 1.69225 -0.51767 -0.607171
                  }
                }
              }
            }
          }
        }
      }
    }
  }
  JOINT rButtock
  {
    OFFSET -8.77824 4.35084 1.2192
    CHANNELS 3 Zrotation Xrotation Yrotation
    JOINT rThigh
    {
      OFFSET 0 -1.70687 -2.19456
      CHANNELS 3 Zrotation Xrotation Yrotation
      JOINT rShin
      {
        OFFSET 0 -36.8199 0.73152
        CHANNELS 3 Zrotation Xrotation Yrotation
        JOINT rFoot
        {
          OFFSET 0.73152 -45.1104 -5.12064
          CHANNELS 3 Zrotation Xrotation Yrotation
          End Site
          {
            OFFSET -1.1221 -3.69964 12.103
          }
        }
      }
    }
  }
  JOINT lButtock
  {
    OFFSET 8.77824 4.35084 1.2192
    CHANNELS 3 Zrotation Xrotation Yrotation
    JOINT lThigh
    {
      OFFSET 0 -1.70687 -2.19456
      CHANNELS 3 Zrotation Xrotation Yrotation
      JOINT lShin
      {
        OFFSET 0 -36.8199 0.73152
        CHANNELS 3 Zrotation Xrotation Yrotation
        JOINT lFoot
        {
          OFFSET -0.73152 -45.1104 -5.12064
          CHANNELS 3 Zrotation Xrotation Yrotation
          End Site
          {
            OFFSET 1.1221 -3.69964 12.103
          }
        }
      }
    }
  }
}
MOTION
Frames:	5
Frame Time:	0.03333
0.140299997292459 56.315797567367554 0.6380000151693821 -14.817399024963379 -51.47280502319336 14.92170238494873 4.257793426513672 13.960206985473633 11.956205368041992 -2.4093003273010254 -12.930389404296875 3.170701026916504 -2.166687488555908 14.406692504882812 8.23285961151123 8.406253814697266 -29.04189109802246 18.688798904418945 -0.0 0.0 -0.0 -0.0 0.0 -0.0 -0.0 0.0 -0.0 33.078102111816406 73.98908233642578 31.781604766845703 -27.799497604370117 -41.36200714111328 86.40519714355469 -14.45182991027832 -68.62810516357422 -21.047487258911133 -0.0 0.0 0.0 -0.0 0.0 0.0 -0.0 0.0 0.0 7.730902194976807 5.47491455078125 0.4173222780227661 -0.0 0.0 0.0 2.905566453933716 0.9650754332542419 0.10300818830728531 -0.0 0.0 0.0 10.278596878051758 0.7318810820579529 0.026273518800735474 -0.0 0.0 0.0 2.221662998199463 -0.7334509491920471 -0.20832103490829468 -0.0 0.0 -0.0 -61.58989715576172 3.363318681716919 -31.59490394592285 28.046201705932617 -30.894495010375977 -68.67789459228516 0.5300376415252686 20.23530387878418 -2.969670057296753 -0.0 -0.0 -0.0 -0.0 -0.0 -0.0 -0.0 -0.0 -0.0 -7.730902194976807 5.47491455078125 -0.4173222780227661 -0.0 -0.0 -0.0 -2.905566453933716 0.9650754332542419 -0.10300818830728531 -0.0 -0.0 -0.0 -10.278596878051758 0.7318810820579529 -0.026273518800735474 -0.0 -0.0 -0.0 -2.221662998199463 -0.7334509491920471 0.20832103490829468 -0.0 0.0 -0.0 -29.174304962158203 -28.630699157714844 -40.734798431396484 -2.557673454284668 76.29299926757812 4.854255199432373 -7.550017833709717 -21.51261329650879 -19.566890716552734 0.0 0.0 0.0 71.25639343261719 -41.92579650878906 70.45919036865234 3.0540640354156494 74.74291229248047 -3.32509446144104 2.5557618141174316 -4.92526388168335 12.231903076171875
0.2634999924339354 56.50010108947754 1.344999996945262 -15.159905433654785 -50.23959732055664 15.619596481323242 4.7704339027404785 13.768402099609375 11.868207931518555 -2.402061700820923 -12.803986549377441 3.1628971099853516 -2.105146646499634 14.40622615814209 7.944634914398193 8.114519119262695 -29.67319679260254 18.106094360351562 -0.0 0.0 -0.0 -0.0 0.0 -0.0 -0.0 0.0 -0.0 35.90949630737305 71.48429870605469 29.73829460144043 -28.098695755004883 -39.85790252685547 83.6675033569336 -13.297307014465332 -67.50326538085938 -19.815242767333984 -0.0 0.0 0.0 -0.0 0.0 0.0 -0.0 0.0 0.0 7.730902194976807 5.47491455078125 0.4173222780227661 -0.0 0.0 0.0 2.905566453933716 0.9650754332542419 0.10300818830728531 -0.0 0.0 0.0 10.278596878051758 0.7318810820579529 0.026273518800735474 -0.0 0.0 0.0 2.221662998199463 -0.7334509491920471 -0.20832103490829468 -0.0 0.0 -0.0 -61.29390335083008 3.974379539489746 -31.004098892211914 28.059494018554688 -30.979509353637695 -68.8145980834961 0.49828261137008667 19.650592803955078 -2.8765878677368164 -0.0 0.0 0.0 -0.0 0.0 0.0 -0.0 0.0 0.0 -7.730902194976807 5.47491455078125 -0.4173222780227661 -0.0 0.0 0.0 -2.905566453933716 0.9650754332542419 -0.10300818830728531 -0.0 0.0 0.0 -10.278596878051758 0.7318810820579529 -0.026273518800735474 -0.0 0.0 0.0 -2.221662998199463 -0.7334509491920471 0.20832103490829468 -0.0 0.0 -0.0 -28.94801139831543 -27.804697036743164 -41.1670036315918 -2.320704698562622 75.27360534667969 4.5991411209106445 -7.417274475097656 -20.945594787597656 -19.693607330322266 0.0 0.0 0.0 71.7135009765625 -42.691097259521484 71.28189849853516 3.1524648666381836 75.15380096435547 -3.4549813270568848 3.1200551986694336 -4.609668254852295 15.174591064453125
0.36059999256394804 56.728702783584595 2.131999982520938 -15.49339771270752 -48.79140853881836 16.26410484313965 5.3571624755859375 13.495609283447266 11.899287223815918 -2.4106380939483643 -12.63211441040039 3.1887192726135254 -2.022758722305298 14.389791488647461 7.540024757385254 7.878622531890869 -30.22159767150879 17.29170799255371 -0.0 0.0 -0.0 -0.0 0.0 -0.0 0.0 0.0 0.0 38.82270431518555 68.72718811035156 27.854894638061523 -28.34099578857422 -38.09290313720703 80.497802734375 -12.361360549926758 -66.42255401611328 -18.785493850708008 -0.0 0.0 0.0 -0.0 0.0 -0.0 -0.0 0.0 0.0 7.730902194976807 5.47491455078125 0.4173222780227661 -0.0 0.0 0.0 2.905566453933716 0.9650754332542419 0.10300818830728531 -0.0 0.0 0.0 10.278596878051758 0.7318810820579529 0.026273518800735474 -0.0 0.0 0.0 2.221662998199463 -0.7334509491920471 -0.20832103490829468 0.0 0.0 0.0 -61.134002685546875 4.924623966217041 -30.48749351501465 28.06899642944336 -31.040699005126953 -68.91289520263672 0.48081809282302856 19.319337844848633 -2.824317455291748 -0.0 0.0 -0.0 -0.0 0.0 -0.0 -0.0 0.0 -0.0 -7.730902194976807 5.47491455078125 -0.4173222780227661 -0.0 0.0 -0.0 -2.905566453933716 0.9650754332542419 -0.10300818830728531 -0.0 0.0 -0.0 -10.278596878051758 0.7318810820579529 -0.026273518800735474 -0.0 0.0 -0.0 -2.221662998199463 -0.7334509491920471 0.20832103490829468 -0.0 0.0 -0.0 -28.461109161376953 -26.776094436645508 -41.467403411865234 -2.0721170902252197 74.04911041259766 4.338872909545898 -7.320483207702637 -20.262399673461914 -19.998397827148438 0.0 0.0 0.0 72.13359832763672 -43.57759475708008 72.0167007446289 3.2577977180480957 75.59750366210938 -3.608424663543701 3.826162815093994 -4.550452709197998 18.392290115356445
0.4367999907117337 57.001298666000366 3.0099999625235796 -15.785096168518066 -47.097496032714844 16.778898239135742 5.932435512542725 13.195293426513672 12.00339126586914 -2.3705592155456543 -12.448278427124023 3.2387657165527344 -1.9757694005966187 14.348688125610352 7.028928279876709 7.723169803619385 -30.686697006225586 16.27581024169922 -0.0 0.0 -0.0 -0.0 0.0 -0.0 -0.0 0.0 -0.0 41.252899169921875 65.9273910522461 26.564002990722656 -28.42819595336914 -36.20040512084961 77.34529876708984 -11.652752876281738 -65.58202362060547 -18.018962860107422 -0.0 0.0 -0.0 -0.0 0.0 -0.0 -0.0 0.0 -0.0 7.730902194976807 5.47491455078125 0.4173222780227661 -0.0 0.0 -0.0 2.905566453933716 0.9650754332542419 0.10300818830728531 -0.0 0.0 -0.0 10.278596878051758 0.7318810820579529 0.026273518800735474 -0.0 0.0 -0.0 2.221662998199463 -0.7334509491920471 -0.20832103490829468 -0.0 0.0 -0.0 -61.1116943359375 6.283364772796631 -30.047197341918945 28.071502685546875 -31.056291580200195 -68.93749237060547 0.4459691345691681 18.638893127441406 -2.7170915603637695 0.0 0.0 -0.0 0.0 0.0 -0.0 0.0 0.0 -0.0 -7.730902194976807 5.47491455078125 -0.4173222780227661 0.0 0.0 -0.0 -2.905566453933716 0.9650754332542419 -0.10300818830728531 0.0 0.0 -0.0 -10.278596878051758 0.7318810820579529 -0.026273518800735474 0.0 0.0 -0.0 -2.221662998199463 -0.7334509491920471 0.20832103490829468 -0.0 0.0 -0.0 -27.706695556640625 -25.601505279541016 -41.502593994140625 -1.835030198097229 72.68031311035156 4.093748092651367 -7.250722885131836 -19.458683013916016 -20.485700607299805 0.0 0.0 0.0 72.33869934082031 -44.581298828125 72.50689697265625 3.351064682006836 75.98869323730469 -3.7581863403320312 4.593251705169678 -4.6486592292785645 21.502399444580078
0.517499988200143 57.31760263442993 3.9879999589174986 -15.971196174621582 -45.16119384765625 17.087995529174805 6.470021724700928 12.920795440673828 12.166911125183105 -2.194828510284424 -12.295612335205078 3.3166110515594482 -2.039123058319092 14.255402565002441 6.39757776260376 7.708730220794678 -30.988990783691406 15.044696807861328 -0.0 0.0 -0.0 -0.0 0.0 -0.0 -0.0 0.0 -0.0 43.168697357177734 63.18879318237305 25.765901565551758 -28.41910171508789 -34.32270431518555 74.1094970703125 -11.345800399780273 -65.12998962402344 -17.6632022857666 -0.0 0.0 -0.0 -0.0 0.0 -0.0 -0.0 0.0 -0.0 7.730902194976807 5.47491455078125 0.4173222780227661 -0.0 0.0 -0.0 2.905566453933716 0.9650754332542419 0.10300818830728531 -0.0 0.0 -0.0 10.278596878051758 0.7318810820579529 0.026273518800735474 -0.0 0.0 -0.0 2.221662998199463 -0.7334509491920471 -0.20832103490829468 -0.0 0.0 -0.0 -61.27680206298828 8.203904151916504 -29.713911056518555 28.06319236755371 -31.004802703857422 -68.85790252685547 0.3619515299797058 16.863685607910156 -2.441378116607666 0.0 0.0 -0.0 0.0 0.0 -0.0 0.0 0.0 -0.0 -7.730902194976807 5.47491455078125 -0.4173222780227661 0.0 0.0 -0.0 -2.905566453933716 0.9650754332542419 -0.10300818830728531 0.0 0.0 -0.0 -10.278596878051758 0.7318810820579529 -0.026273518800735474 0.0 0.0 -0.0 -2.221662998199463 -0.7334509491920471 0.20832103490829468 -0.0 0.0 -0.0 -26.63849639892578 -24.22499656677246 -41.20140075683594 -1.608797550201416 71.1469955444336 3.864968776702881 -7.220489501953125 -18.560701370239258 -21.19209861755371 0.0 0.0 0.0 72.1922836303711 -45.70439910888672 72.56808471679688 3.406263828277588 76.26792907714844 -3.8811960220336914 5.4017510414123535 -4.9926533699035645 24.096206665039062
